<svg xmlns="http://www.w3.org/2000/svg" viewBox="-1.25 -1.25 25 25" id="Add-Circle-Bold--Streamline-Ultimate.svg" height="25" width="25" style="background-color: #ffffff"><desc>Add Circle Bold Streamline Icon: https://streamlinehq.com</desc><path d="M0.46875000000000006 11.250000000000002A10.781250000000002 10.781250000000002 0 1 0 11.250000000000002 0.46875000000000006 10.790625 10.790625 0 0 0 0.46875000000000006 11.250000000000002Zm4.687500000000001 -0.46875000000000006a0.9375000000000001 0.9375000000000001 0 0 1 0.9375000000000001 -0.9375000000000001h3.5156250000000004a0.23437500000000003 0.23437500000000003 0 0 0 0.23437500000000003 -0.23437500000000003V6.093750000000001a0.9375000000000001 0.9375000000000001 0 0 1 0.9375000000000001 -0.9375000000000001h0.9375000000000001a0.9375000000000001 0.9375000000000001 0 0 1 0.9375000000000001 0.9375000000000001v3.5156250000000004a0.23437500000000003 0.23437500000000003 0 0 0 0.23437500000000003 0.23437500000000003h3.5156250000000004a0.9375000000000001 0.9375000000000001 0 0 1 0.9375000000000001 0.9375000000000001v0.9375000000000001a0.9375000000000001 0.9375000000000001 0 0 1 -0.9375000000000001 0.9375000000000001h-3.5156250000000004a0.23437500000000003 0.23437500000000003 0 0 0 -0.23437500000000003 0.23437500000000003v3.5156250000000004a0.9375000000000001 0.9375000000000001 0 0 1 -0.9375000000000001 0.9375000000000001h-0.9375000000000001a0.9375000000000001 0.9375000000000001 0 0 1 -0.9375000000000001 -0.9375000000000001v-3.5156250000000004a0.23437500000000003 0.23437500000000003 0 0 0 -0.23437500000000003 -0.23437500000000003H6.093750000000001a0.9375000000000001 0.9375000000000001 0 0 1 -0.9375000000000001 -0.9375000000000001Z" fill="#ff0000" stroke-width="1"></path></svg>