<svg width="17" height="17" viewBox="0 0 17 17" fill="none" xmlns="http://www.w3.org/2000/svg">
<path d="M2.81006 3.75195L4.00537 7.73539M9.26193 12.9938L13.2472 14.1891" stroke="black" stroke-linecap="round" stroke-linejoin="round"/>
<path d="M8.20264 8.7975L13.6017 3.39844" stroke="black" stroke-linecap="round" stroke-linejoin="round"/>
<path d="M1 2.40625C1 2.77921 1.14816 3.1369 1.41188 3.40062C1.6756 3.66434 2.03329 3.8125 2.40625 3.8125C2.77921 3.8125 3.1369 3.66434 3.40062 3.40062C3.66434 3.1369 3.8125 2.77921 3.8125 2.40625C3.8125 2.03329 3.66434 1.6756 3.40062 1.41188C3.1369 1.14816 2.77921 1 2.40625 1C2.03329 1 1.6756 1.14816 1.41188 1.41188C1.14816 1.6756 1 2.03329 1 2.40625Z" stroke="black" stroke-linecap="round" stroke-linejoin="round"/>
<path d="M13.1875 2.40625C13.1875 2.77921 13.3357 3.1369 13.5994 3.40062C13.8631 3.66434 14.2208 3.8125 14.5938 3.8125C14.9667 3.8125 15.3244 3.66434 15.5881 3.40062C15.8518 3.1369 16 2.77921 16 2.40625C16 2.03329 15.8518 1.6756 15.5881 1.41188C15.3244 1.14816 14.9667 1 14.5938 1C14.2208 1 13.8631 1.14816 13.5994 1.41188C13.3357 1.6756 13.1875 2.03329 13.1875 2.40625Z" stroke="black" stroke-linecap="round" stroke-linejoin="round"/>
<path d="M13.1875 14.5938C13.1875 14.9667 13.3357 15.3244 13.5994 15.5881C13.8631 15.8518 14.2208 16 14.5938 16C14.9667 16 15.3244 15.8518 15.5881 15.5881C15.8518 15.3244 16 14.9667 16 14.5938C16 14.2208 15.8518 13.8631 15.5881 13.5994C15.3244 13.3357 14.9667 13.1875 14.5938 13.1875C14.2208 13.1875 13.8631 13.3357 13.5994 13.5994C13.3357 13.8631 13.1875 14.2208 13.1875 14.5938Z" stroke="black" stroke-linecap="round" stroke-linejoin="round"/>
<path d="M1 11.7812C1 12.9001 1.44447 13.9732 2.23564 14.7644C3.02681 15.5555 4.09987 16 5.21875 16C6.33763 16 7.41069 15.5555 8.20186 14.7644C8.99303 13.9732 9.4375 12.9001 9.4375 11.7812C9.4375 10.6624 8.99303 9.58931 8.20186 8.79814C7.41069 8.00697 6.33763 7.5625 5.21875 7.5625C4.09987 7.5625 3.02681 8.00697 2.23564 8.79814C1.44447 9.58931 1 10.6624 1 11.7812Z" stroke="black" stroke-linecap="round" stroke-linejoin="round"/>
</svg>
