<svg width="22" height="22" viewBox="0 0 22 22" fill="none" xmlns="http://www.w3.org/2000/svg">
<path d="M3.41357 4.66992L5.00732 9.98117M12.0161 16.9924L17.3298 18.5862" stroke="white" stroke-linecap="round" stroke-linejoin="round"/>
<path d="M10.6035 11.396L17.8023 4.19727" stroke="white" stroke-linecap="round" stroke-linejoin="round"/>
<path d="M1 2.875C1 3.37228 1.19754 3.84919 1.54917 4.20083C1.90081 4.55246 2.37772 4.75 2.875 4.75C3.37228 4.75 3.84919 4.55246 4.20083 4.20083C4.55246 3.84919 4.75 3.37228 4.75 2.875C4.75 2.37772 4.55246 1.90081 4.20083 1.54917C3.84919 1.19754 3.37228 1 2.875 1C2.37772 1 1.90081 1.19754 1.54917 1.54917C1.19754 1.90081 1 2.37772 1 2.875Z" stroke="white" stroke-linecap="round" stroke-linejoin="round"/>
<path d="M17.25 2.875C17.25 3.37228 17.4475 3.84919 17.7992 4.20083C18.1508 4.55246 18.6277 4.75 19.125 4.75C19.6223 4.75 20.0992 4.55246 20.4508 4.20083C20.8025 3.84919 21 3.37228 21 2.875C21 2.37772 20.8025 1.90081 20.4508 1.54917C20.0992 1.19754 19.6223 1 19.125 1C18.6277 1 18.1508 1.19754 17.7992 1.54917C17.4475 1.90081 17.25 2.37772 17.25 2.875Z" stroke="white" stroke-linecap="round" stroke-linejoin="round"/>
<path d="M17.25 19.125C17.25 19.6223 17.4475 20.0992 17.7992 20.4508C18.1508 20.8025 18.6277 21 19.125 21C19.6223 21 20.0992 20.8025 20.4508 20.4508C20.8025 20.0992 21 19.6223 21 19.125C21 18.6277 20.8025 18.1508 20.4508 17.7992C20.0992 17.4475 19.6223 17.25 19.125 17.25C18.6277 17.25 18.1508 17.4475 17.7992 17.7992C17.4475 18.1508 17.25 18.6277 17.25 19.125Z" stroke="white" stroke-linecap="round" stroke-linejoin="round"/>
<path d="M1 15.375C1 16.8668 1.59263 18.2976 2.64752 19.3525C3.70242 20.4074 5.13316 21 6.625 21C8.11684 21 9.54758 20.4074 10.6025 19.3525C11.6574 18.2976 12.25 16.8668 12.25 15.375C12.25 13.8832 11.6574 12.4524 10.6025 11.3975C9.54758 10.3426 8.11684 9.75 6.625 9.75C5.13316 9.75 3.70242 10.3426 2.64752 11.3975C1.59263 12.4524 1 13.8832 1 15.375Z" stroke="white" stroke-linecap="round" stroke-linejoin="round"/>
</svg>
