<svg width="16" height="16" viewBox="0 0 16 16" fill="none" xmlns="http://www.w3.org/2000/svg">
<path d="M8 -3.8147e-06C9.58225 -3.8147e-06 11.129 0.469188 12.4446 1.34824C13.7602 2.22729 14.7855 3.47672 15.391 4.93853C15.9965 6.40034 16.155 8.00887 15.8463 9.56072C15.5376 11.1126 14.7757 12.538 13.6569 13.6569C12.538 14.7757 11.1126 15.5376 9.56072 15.8463C8.00887 16.155 6.40034 15.9965 4.93853 15.391C3.47672 14.7855 2.22729 13.7602 1.34824 12.4446C0.469192 11.129 0 9.58225 0 8C0.00229405 5.87897 0.845886 3.84547 2.34568 2.34567C3.84547 0.845881 5.87897 0.00228977 8 -3.8147e-06ZM4.19533 9.69L6.586 12.0807C6.77172 12.2664 6.99222 12.4138 7.23489 12.5143C7.47756 12.6148 7.73766 12.6666 8.00033 12.6666C8.26301 12.6666 8.52311 12.6148 8.76578 12.5143C9.00845 12.4138 9.22895 12.2664 9.41467 12.0807L11.8047 9.69L11.8207 9.67333C11.8842 9.61096 11.9346 9.53648 11.9689 9.45431C12.0032 9.37214 12.0207 9.28393 12.0203 9.19489C12.02 9.10584 12.0018 9.01778 11.9668 8.93588C11.9319 8.85399 11.8809 8.77992 11.8168 8.71806C11.7528 8.6562 11.677 8.60779 11.5939 8.5757C11.5109 8.54361 11.4222 8.52848 11.3332 8.53121C11.2442 8.53394 11.1567 8.55447 11.0758 8.59159C10.9948 8.62871 10.9221 8.68166 10.862 8.74733L8.66667 10.9427L8.67133 4C8.67133 3.82318 8.6011 3.65361 8.47607 3.52859C8.35105 3.40357 8.18148 3.33333 8.00467 3.33333C7.82786 3.33333 7.65829 3.40357 7.53326 3.52859C7.40824 3.65361 7.338 3.82318 7.338 4L7.33333 10.942L5.138 8.74733C5.0765 8.68366 5.00294 8.63287 4.9216 8.59793C4.84027 8.56299 4.75279 8.5446 4.66427 8.54383C4.57575 8.54306 4.48796 8.55993 4.40603 8.59345C4.3241 8.62697 4.24967 8.67647 4.18707 8.73907C4.12448 8.80166 4.07497 8.8761 4.04145 8.95803C4.00793 9.03996 3.99106 9.12774 3.99183 9.21626C3.9926 9.30478 4.01099 9.39226 4.04593 9.4736C4.08087 9.55493 4.13166 9.6285 4.19533 9.69Z" fill="#059A2F"/>
</svg>
