<svg width="16" height="16" viewBox="0 0 16 16" fill="none" xmlns="http://www.w3.org/2000/svg">
<path d="M8 16C6.41775 16 4.87103 15.5308 3.55544 14.6518C2.23984 13.7727 1.21446 12.5233 0.608962 11.0615C0.00346088 9.59966 -0.154964 7.99113 0.153716 6.43928C0.462399 4.88743 1.22432 3.46197 2.34314 2.34315C3.46196 1.22433 4.88743 0.462403 6.43928 0.153721C7.99113 -0.15496 9.59966 0.00346629 11.0615 0.608967C12.5233 1.21447 13.7727 2.23985 14.6518 3.55544C15.5308 4.87104 16 6.41775 16 8C15.9977 10.121 15.1541 12.1545 13.6543 13.6543C12.1545 15.1541 10.121 15.9977 8 16ZM11.8047 6.31L9.414 3.91934C9.22828 3.73358 9.00778 3.58623 8.76511 3.4857C8.52244 3.38517 8.26234 3.33343 7.99967 3.33343C7.73699 3.33343 7.47689 3.38517 7.23422 3.4857C6.99155 3.58623 6.77105 3.73358 6.58533 3.91934L4.19533 6.31L4.17933 6.32667C4.11579 6.38904 4.06538 6.46352 4.03109 6.54569C3.9968 6.62786 3.97932 6.71607 3.97967 6.80511C3.98003 6.89416 3.99822 6.98222 4.03317 7.06412C4.06812 7.14601 4.11913 7.22008 4.18317 7.28194C4.24721 7.3438 4.323 7.39221 4.40606 7.4243C4.48912 7.45639 4.57776 7.47152 4.66676 7.46879C4.75576 7.46606 4.84331 7.44553 4.92425 7.40841C5.00518 7.37129 5.07786 7.31834 5.138 7.25267L7.33333 5.05734L7.32867 12C7.32867 12.1768 7.3989 12.3464 7.52393 12.4714C7.64895 12.5964 7.81852 12.6667 7.99533 12.6667C8.17214 12.6667 8.34171 12.5964 8.46674 12.4714C8.59176 12.3464 8.662 12.1768 8.662 12L8.66667 5.058L10.862 7.25267C10.9235 7.31634 10.9971 7.36713 11.0784 7.40207C11.1597 7.43701 11.2472 7.4554 11.3357 7.45617C11.4243 7.45694 11.512 7.44007 11.594 7.40655C11.6759 7.37303 11.7503 7.32353 11.8129 7.26093C11.8755 7.19834 11.925 7.1239 11.9585 7.04197C11.9921 6.96004 12.0089 6.87226 12.0082 6.78374C12.0074 6.69522 11.989 6.60774 11.9541 6.5264C11.9191 6.44507 11.8683 6.3715 11.8047 6.31Z" fill="#E23030"/>
</svg>
