<svg xmlns="http://www.w3.org/2000/svg" viewBox="-0.5 -0.5 16 16" id="Notification-Line--Streamline-Mingcute" height="16" width="16"><desc>Notification Line Streamline Icon: https://streamlinehq.com</desc><g fill="none" fill-rule="evenodd"><path d="m15 0 0 15 -15 0L0 0l15 0ZM7.8709375 14.536125l-0.0072499999999999995 0.0010624999999999999 -0.044375 0.0221875 -0.011875 0.0023125000000000003 -0.0095 -0.0023125000000000003 -0.044375 -0.0221875c-0.0061875 -0.0019375 -0.0116875 -0.0003125 -0.01475 0.0033750000000000004l-0.0025625 0.0068125 -0.0106875 0.2670625 0.003125 0.012750000000000001 0.006874999999999999 0.007625000000000001 0.06475 0.04625 0.009250000000000001 0.0024375 0.007375 -0.0024375 0.06475 -0.04625 0.007875 -0.01 0.0021249999999999997 -0.010375 -0.0106875 -0.2670625c-0.00125 -0.0063124999999999995 -0.005375 -0.0103125 -0.0100625 -0.01125Zm0.1655625 -0.0703125 -0.008687499999999999 0.00125 -0.1154375 0.057749999999999996 -0.0061875 0.0063750000000000005 -0.0016875000000000002 0.007 0.0111875 0.2684375 0.0029999999999999996 0.008 0.0053125 0.0044375000000000005 0.1255625 0.0579375c0.0075625 0.0023125000000000003 0.0143125 -0.000125 0.017812500000000002 -0.005l0.0025 -0.00875 -0.021312499999999998 -0.3841875c-0.0014999999999999998 -0.0074375000000000005 -0.0064375000000000005 -0.0121875 -0.0120625 -0.01325Zm-0.447125 0.00125c-0.006125 -0.0030625 -0.013 -0.00125 -0.017125 0.0033125l-0.0035625 0.008687499999999999 -0.021312499999999998 0.3841875c-0.0004375 0.0071874999999999994 0.004375 0.0129375 0.010499999999999999 0.014625l0.009812499999999998 -0.000875 0.1255625 -0.0579375 0.005875 -0.005062499999999999 0.0024375 -0.007375 0.0111875 -0.2684375 -0.002 -0.007875 -0.005875 -0.0055000000000000005 -0.11549999999999999 -0.057749999999999996Z" stroke-width="1"></path><path fill="#000000" d="M3.1251 5.625c0 -2.41624375 1.95875625 -4.375 4.375025 -4.375 2.4162500000000002 0 4.375 1.95875625 4.375 4.375l0 2.3524375 1.13875 2.277625c0.2285625 0.457125 -0.1038125 0.9949375 -0.6148750000000001 0.9949375l-2.47775 0c-0.2775625 1.0782500000000002 -1.2563750000000002 1.875 -2.42125 1.875s-2.1437125000000004 -0.79675 -2.4212375 -1.875l-2.4775312499999997 0c-0.511075 0 -0.84348125 -0.5378125 -0.61491875 -0.9949375l1.1387875 -2.277625 0 -2.3524375Zm3.29215 5.625c0.216125 0.373625 0.6200625 0.625 1.0827499999999999 0.625s0.866625 -0.251375 1.0827499999999999 -0.625l-2.1654999999999998 0Zm1.082875 -8.75C5.7742125 2.5 4.3751 3.8991124999999998 4.3751 5.625l0 2.3524375c0 0.1940625 -0.04518124999999999 0.3854375 -0.13196249999999998 0.5590625L3.511375 10l7.9774375 0 -0.73175 -1.4635c-0.08675000000000001 -0.173625 -0.1319375 -0.365 -0.1319375 -0.5590625l0 -2.3524375c0 -1.7258875000000002 -1.399125 -3.125 -3.125 -3.125Z" stroke-width="1"></path></g></svg>