<svg viewBox="-0.895 -0.895 25 25" xmlns="http://www.w3.org/2000/svg" id="Shopping-Cart-Empty-1--Streamline-Ultimate.svg" height="25" width="25"><desc>Shopping Cart Empty 1 Streamline Icon: https://streamlinehq.com</desc><path d="M3.584977916666667 5.318958333333334h18.02449916666667a0.9670833333333334 0.9670833333333334 0 0 1 0.9332354166666668 1.22142625l-1.9854220833333334 7.278269166666667a2.90125 2.90125 0 0 1 -2.798739166666667 2.13822125H5.824742916666667" fill="none" stroke="#050506" stroke-linecap="round" stroke-linejoin="round" stroke-width="1.79"></path><path d="M0.6324725000000001 0.4835416666666667h0.36555750000000004a1.9341666666666668 1.9341666666666668 0 0 1 1.8925820833333336 1.5357283333333336L6.111966666666667 17.322396666666666A1.9341666666666668 1.9341666666666668 0 0 0 8.00454875 18.858125h11.002507083333334" fill="none" stroke="#050506" stroke-linecap="round" stroke-linejoin="round" stroke-width="1.79"></path><path d="M5.951430833333334 21.275833333333335a1.450625 1.450625 0 1 0 2.90125 0 1.450625 1.450625 0 1 0 -2.90125 0Z" fill="none" stroke="#050506" stroke-linecap="round" stroke-linejoin="round" stroke-width="1.79"></path><path d="M15.622264166666668 21.275833333333335a1.450625 1.450625 0 1 0 2.90125 0 1.450625 1.450625 0 1 0 -2.90125 0Z" fill="none" stroke="#050506" stroke-linecap="round" stroke-linejoin="round" stroke-width="1.79"></path></svg>