<svg xmlns="http://www.w3.org/2000/svg" fill="#000000" class="bi bi-cash-coin" viewBox="0 0 25 25" id="Cash-Coin--Streamline-Bootstrap.svg" height="25" width="25"><desc>Cash Coin Streamline Icon: https://streamlinehq.com</desc><path fill-rule="evenodd" d="M17.1875 23.4375a6.25 6.25 0 1 0 0 -12.5 6.25 6.25 0 0 0 0 12.5m7.8125 -6.25a7.8125 7.8125 0 1 1 -15.625 0 7.8125 7.8125 0 0 1 15.625 0" stroke-width="1"></path><path d="M14.746875000000001 18.6625c0.0734375 0.9312499999999999 0.8093750000000001 1.65625 2.1296875 1.7437500000000001v0.6875h0.5859375v-0.6921875c1.3671875 -0.0953125 2.165625 -0.8265625000000001 2.165625 -1.8859375 0 -0.965625 -0.609375 -1.4625000000000001 -1.7031250000000002 -1.7187500000000002l-0.46249999999999997 -0.10937500000000001v-1.875c0.5875 0.0671875 0.959375 0.3875 1.0484375000000001 0.83125h1.028125c-0.0734375 -0.8984374999999999 -0.84375 -1.6 -2.0765625 -1.6765625V13.28125h-0.5859375v0.703125c-1.1671875 0.1140625 -1.9609374999999998 0.815625 -1.9609374999999998 1.809375 0 0.878125 0.590625 1.4375 1.5734374999999998 1.6656250000000001l0.3875 0.0953125v1.9875c-0.6 -0.09062500000000001 -0.9984375 -0.421875 -1.0875 -0.8796875h-1.04375zm2.125 -2.115625c-0.5765625 -0.1328125 -0.8890624999999999 -0.40625 -0.8890624999999999 -0.815625 0 -0.459375 0.3375 -0.803125 0.8937499999999999 -0.903125v1.7187500000000002zm0.675 1.165625c0.7015625 0.1625 1.0234375 0.42500000000000004 1.0234375 0.8890624999999999 0 0.5296875000000001 -0.4015625 0.8921874999999999 -1.1078124999999999 0.959375v-1.8671875z" stroke-width="1"></path><path d="M1.5625 0a1.5625 1.5625 0 0 0 -1.5625 1.5625v12.5a1.5625 1.5625 0 0 0 1.5625 1.5625h6.3796875q0.13749999999999998 -0.8078125 0.403125 -1.5625H4.6875a3.125 3.125 0 0 0 -3.125 -3.125V4.6875a3.125 3.125 0 0 0 3.125 -3.125h15.625a3.125 3.125 0 0 0 3.125 3.125v5.5125c0.59375 0.53125 1.1203125 1.1375 1.5625 1.8031249999999999V1.5625a1.5625 1.5625 0 0 0 -1.5625 -1.5625z" stroke-width="1"></path><path d="M15.621875 7.9421875 15.625 7.8125a3.125 3.125 0 1 0 -4.89375 2.578125 9.375 9.375 0 0 1 4.890625 -2.4484375" stroke-width="1"></path></svg>