<svg xmlns="http://www.w3.org/2000/svg" fill="none" viewBox="0 0 25 25" id="Chat-Bubble-Typing-Oval--Streamline-Core-Remix.svg" height="25" width="25"><desc>Chat Bubble Typing Oval Streamline Icon: https://streamlinehq.com</desc><g id="Mail/Chat Bubble/chat-bubble-typing-oval--messages-message-bubble-typing-chat"><path id="Union" fill="#7b7b7d" fill-rule="evenodd" d="M2.2304107142857146 12.500035714285715c0 -5.671767857142857 4.5978392857142865 -10.269642857142859 10.26955357142857 -10.269642857142859 5.671642857142857 0 10.2695 4.597875 10.2695 10.269642857142859 0 5.67175 -4.597857142857143 10.269607142857144 -10.2695 10.269607142857144 -1.5803035714285716 0 -3.0744107142857144 -0.3560714285714286 -4.409053571428571 -0.9916071428571429 -0.22558928571428571 -0.13839285714285715 -0.5009107142857143 -0.1975 -0.7817678571428572 -0.14660714285714288l-0.009160714285714286 0.0016071428571428571 -0.0000892857142857143 0 -4.448928571428572 0.8044642857142857 1.2155535714285715 -3.234107142857143 0.00001785714285714286 0 0.0018214285714285717 -0.004821428571428572c0.14310714285714288 -0.38089285714285714 0.06460714285714285 -0.7905357142857143 -0.17121428571428574 -1.0876785714285715 -1.054 -1.6122857142857143 -1.666732142857143 -3.5383750000000003 -1.666732142857143 -5.610857142857143ZM12.499964285714286 25.001785714285713c-1.8355178571428572 0 -3.5812500000000003 -0.39625 -5.153964285714285 -1.1087500000000001l-6.033066071428571 1.090892857142857c-0.3952785714285714 0.07142857142857144 -0.798475 -0.07500000000000001 -1.0557357142857142 -0.38339285714285715 -0.25726065428571426 -0.3085714285714286 -0.3288955357142857 -0.7314285714285715 -0.18756982142857143 -1.1075l1.7119341071428573 -4.554642857142857C0.6494339285714286 17.057178571428572 -0.0017282839285714287 14.853214285714287 -0.0017282839285714287 12.500035714285715c0 -6.904535714285715 5.597192569642858 -12.501779575 12.501692569642858 -12.501779575S25.001607142857143 5.5955 25.001607142857143 12.500035714285715c0 6.904607142857143 -5.597142857142857 12.501750000000001 -12.501642857142857 12.501750000000001ZM7.592732142857143 14.285928571428574c-0.9862142857142857 0 -1.7857142857142858 -0.7994821428571429 -1.7857142857142858 -1.7857142857142858 0 -0.9862142857142857 0.7995000000000001 -1.7857142857142858 1.7857142857142858 -1.7857142857142858 0.9862321428571428 0 1.7857142857142858 0.7995000000000001 1.7857142857142858 1.7857142857142858 0 0.9862321428571428 -0.7994821428571429 1.7857142857142858 -1.7857142857142858 1.7857142857142858Zm6.696428571428572 -1.7857142857142858c0 -0.9862142857142857 -0.7994821428571429 -1.7857142857142858 -1.7857142857142858 -1.7857142857142858 -0.9862142857142857 0 -1.7857142857142858 0.7995000000000001 -1.7857142857142858 1.7857142857142858 0 0.9862321428571428 0.7995000000000001 1.7857142857142858 1.7857142857142858 1.7857142857142858 0.9862321428571428 0 1.7857142857142858 -0.7994821428571429 1.7857142857142858 -1.7857142857142858Zm3.125 1.7857142857142858c-0.9862142857142857 0 -1.7857142857142858 -0.7994821428571429 -1.7857142857142858 -1.7857142857142858 0 -0.9862142857142857 0.7995000000000001 -1.7857142857142858 1.7857142857142858 -1.7857142857142858 0.9861964285714286 0 1.7856607142857144 0.7995000000000001 1.7856607142857144 1.7857142857142858 0 0.9862321428571428 -0.7994642857142857 1.7857142857142858 -1.7856607142857144 1.7857142857142858Z" clip-rule="evenodd" stroke-width="1"></path></g></svg>