<svg width="14" height="14" viewBox="0 0 14 14" fill="none" xmlns="http://www.w3.org/2000/svg">
<path d="M8.48908 5.44428C8.43786 5.29937 8.35883 5.1676 8.25839 5.05539C8.04477 4.81671 7.73432 4.6665 7.38879 4.6665H6.48575C5.91059 4.6665 5.44434 5.13275 5.44434 5.70791C5.44434 6.19731 5.78511 6.62068 6.2632 6.72526L7.63811 7.02602C8.17371 7.14318 8.55546 7.61782 8.55546 8.16609C8.55546 8.81042 8.03313 9.33319 7.38879 9.33319H6.61101C6.10303 9.33319 5.67088 9.00854 5.51072 8.55541" stroke="black" stroke-linecap="round" stroke-linejoin="round"/>
<path d="M7 4.66667V3.5" stroke="black" stroke-linecap="round" stroke-linejoin="round"/>
<path d="M7 10.5002V9.3335" stroke="black" stroke-linecap="round" stroke-linejoin="round"/>
<path d="M13.4999 7C13.4999 10.5899 10.5898 13.5 6.99989 13.5C4.29594 13.5 1.97761 11.849 0.998047 9.5" stroke="black" stroke-linecap="round" stroke-linejoin="round"/>
<path d="M0.5 7C0.5 3.41015 3.41015 0.5 7 0.5C9.70395 0.5 12.0223 2.15105 13.0018 4.5" stroke="black" stroke-linecap="round" stroke-linejoin="round"/>
<path d="M13.5 2.5V4.5H11.5" stroke="black" stroke-linecap="round" stroke-linejoin="round"/>
<path d="M0.5 11.5V9.5H2.5" stroke="black" stroke-linecap="round" stroke-linejoin="round"/>
</svg>
