<svg xmlns="http://www.w3.org/2000/svg" fill="none" viewBox="-0.895 -0.895 25 25" id="Chat-Bubble-Typing-Oval--Streamline-Core.svg" height="25" width="25"><desc>Chat Bubble Typing Oval Streamline Icon: https://streamlinehq.com</desc><g id="chat-bubble-typing-oval--messages-message-bubble-typing-chat"><path id="Ellipse 1144" stroke="#ffffff" stroke-linecap="round" stroke-linejoin="round" d="M6.871353657142858 21.288377785714285C8.300210992857144 21.988159285714286 9.9067243 22.38107142857143 11.605 22.38107142857143c5.951541357142857 0 10.776071428571429 -4.824530071428572 10.776071428571429 -10.776071428571429C22.38107142857143 5.653541535714286 17.55654135714286 0.8289285714285715 11.605 0.8289285714285715 5.653541535714286 0.8289285714285715 0.8289285714285715 5.653541535714286 0.8289285714285715 11.605c0 2.209277007142857 0.6648338714285714 4.2632625357142855 1.8053401142857142 5.972761928571429m4.237084971428572 3.7106158571428574L0.8289285714285715 22.38107142857143l1.8053401142857142 -4.8033095m4.237084971428572 3.7106158571428574L6.880107142857144 21.286885714285713m-4.245838457142858 -3.7091237857142856L2.6359928571428575 17.573285714285714" stroke-width="1.79"></path><g id="Group 4482"><path id="Vector" stroke="#ffffff" stroke-linecap="round" stroke-linejoin="round" d="M11.608183085714286 12.019464285714285c-0.22890033571428572 0 -0.41446428571428573 -0.18556395 -0.41446428571428573 -0.41446428571428573s0.18556395 -0.41446428571428573 0.41446428571428573 -0.41446428571428573" stroke-width="1.79"></path><path id="Vector_2" stroke="#ffffff" stroke-linecap="round" stroke-linejoin="round" d="M11.608183085714286 12.019464285714285c0.22890033571428572 0 0.41446428571428573 -0.18556395 0.41446428571428573 -0.41446428571428573s-0.18556395 -0.41446428571428573 -0.41446428571428573 -0.41446428571428573" stroke-width="1.79"></path></g><g id="Group 4493"><path id="Vector_3" stroke="#ffffff" stroke-linecap="round" stroke-linejoin="round" d="M7.049075942857144 12.019464285714285c-0.22890033571428572 0 -0.41446428571428573 -0.18556395 -0.41446428571428573 -0.41446428571428573s0.18556395 -0.41446428571428573 0.41446428571428573 -0.41446428571428573" stroke-width="1.79"></path><path id="Vector_4" stroke="#ffffff" stroke-linecap="round" stroke-linejoin="round" d="M7.049075942857144 12.019464285714285c0.22890033571428572 0 0.41446428571428573 -0.18556395 0.41446428571428573 -0.41446428571428573s-0.18556395 -0.41446428571428573 -0.41446428571428573 -0.41446428571428573" stroke-width="1.79"></path></g><g id="Group 4494"><path id="Vector_5" stroke="#ffffff" stroke-linecap="round" stroke-linejoin="round" d="M16.167290228571428 12.019464285714285c-0.22890033571428572 0 -0.41446428571428573 -0.18556395 -0.41446428571428573 -0.41446428571428573s0.18556395 -0.41446428571428573 0.41446428571428573 -0.41446428571428573" stroke-width="1.79"></path><path id="Vector_6" stroke="#ffffff" stroke-linecap="round" stroke-linejoin="round" d="M16.167290228571428 12.019464285714285c0.22890033571428572 0 0.4144311285714286 -0.18556395 0.4144311285714286 -0.41446428571428573s-0.18553079285714286 -0.41446428571428573 -0.4144311285714286 -0.41446428571428573" stroke-width="1.79"></path></g></g></svg>