<svg width="14" height="12" viewBox="0 0 14 12" fill="none" xmlns="http://www.w3.org/2000/svg">
<path d="M0.5 10.5C0.5 11.0523 0.946969 11.5 1.49833 11.5H12.5017C13.053 11.5 13.5 11.0523 13.5 10.5V7.96597C12.6357 7.73132 11.9999 6.94003 11.9999 6C11.9999 5.05997 12.6357 4.26868 13.5 4.03403V1.5C13.5 0.94772 13.053 0.5 12.5017 0.5H1.49833C0.94697 0.5 0.5 0.94771 0.5 1.5V4.02963C1.3727 4.25866 2.01656 5.05401 2.01656 6C2.01656 6.94599 1.3727 7.74134 0.5 7.97037V10.5Z" stroke="black" stroke-linecap="round" stroke-linejoin="round"/>
<path d="M4.5 8.5L9.5 3.5" stroke="black" stroke-linecap="round" stroke-linejoin="round"/>
<path d="M5 4.5C5.27614 4.5 5.5 4.27614 5.5 4C5.5 3.72386 5.27614 3.5 5 3.5C4.72386 3.5 4.5 3.72386 4.5 4C4.5 4.27614 4.72386 4.5 5 4.5Z" stroke="black" stroke-linecap="round" stroke-linejoin="round"/>
<path d="M9 8.5C9.27614 8.5 9.5 8.27614 9.5 8C9.5 7.72386 9.27614 7.5 9 7.5C8.72386 7.5 8.5 7.72386 8.5 8C8.5 8.27614 8.72386 8.5 9 8.5Z" stroke="black" stroke-linecap="round" stroke-linejoin="round"/>
</svg>
