<svg xmlns="http://www.w3.org/2000/svg" viewBox="0 0 25 25" id="Download-Bottom--Streamline-Ultimate.svg" height="25" width="25"><desc>Download Bottom Streamline Icon: https://streamlinehq.com</desc><g><path d="M23.614583333333336 17.645833333333336a1.2708333333333335 1.2708333333333335 0 0 0 -1.2708333333333335 1.2604166666666667V20.833333333333336a1.6354166666666667 1.6354166666666667 0 0 1 -1.6354166666666667 1.6354166666666667H4.291666666666667A1.6354166666666667 1.6354166666666667 0 0 1 2.65625 20.833333333333336v-1.9270833333333335a1.2708333333333335 1.2708333333333335 0 0 0 -2.5312500000000004 0V20.833333333333336a4.166666666666667 4.166666666666667 0 0 0 4.166666666666667 4.166666666666667h16.416666666666668a4.166666666666667 4.166666666666667 0 0 0 4.166666666666667 -4.166666666666667v-1.9270833333333335a1.2604166666666667 1.2604166666666667 0 0 0 -1.2604166666666667 -1.2604166666666667Z" fill="#000000" stroke-width="1"></path><path d="M12.5 0a2.0208333333333335 2.0208333333333335 0 0 0 -2.0208333333333335 2.0208333333333335V11.458333333333334a0.2604166666666667 0.2604166666666667 0 0 1 -0.2604166666666667 0.2604166666666667H7.447916666666668a1.0416666666666667 1.0416666666666667 0 0 0 -0.7604166666666667 1.666666666666667l5.052083333333333 5.812500000000001a1.0416666666666667 1.0416666666666667 0 0 0 1.5208333333333335 0l5.052083333333333 -5.812500000000001a1.0416666666666667 1.0416666666666667 0 0 0 -0.7604166666666667 -1.666666666666667h-2.7708333333333335a0.2604166666666667 0.2604166666666667 0 0 1 -0.2604166666666667 -0.2604166666666667V2.0208333333333335A2.0208333333333335 2.0208333333333335 0 0 0 12.5 0Z" fill="#000000" stroke-width="1"></path></g></svg>