<svg width="16" height="16" viewBox="0 0 16 16" fill="none" xmlns="http://www.w3.org/2000/svg">
<g clip-path="url(#clip0_42_735)">
<path d="M8.00003 14.8372C4.22397 14.8372 1.16284 11.7761 1.16284 8.00003C1.16284 4.22397 4.22397 1.16284 8.00003 1.16284C11.7761 1.16284 14.8372 4.22397 14.8372 8.00003C14.8372 11.7761 11.7761 14.8372 8.00003 14.8372Z" stroke="black" stroke-linecap="round" stroke-linejoin="round"/>
<path d="M11.0768 9.70923C11.0768 9.70923 10.0512 11.0767 8.00003 11.0767C5.94884 11.0767 4.92328 9.70923 4.92328 9.70923" stroke="black" stroke-linecap="round" stroke-linejoin="round"/>
<path d="M10.393 5.94882C10.2043 5.94882 10.0512 5.79576 10.0512 5.60701C10.0512 5.41826 10.2043 5.26514 10.393 5.26514C10.5818 5.26514 10.7349 5.4182 10.7349 5.60701C10.7349 5.79582 10.5818 5.94882 10.393 5.94882Z" fill="black" stroke="black" stroke-linecap="round" stroke-linejoin="round"/>
<path d="M5.60701 5.94882C5.4182 5.94882 5.26514 5.79576 5.26514 5.60701C5.26514 5.41826 5.4182 5.26514 5.60701 5.26514C5.79582 5.26514 5.94882 5.4182 5.94882 5.60701C5.94882 5.79582 5.79576 5.94882 5.60701 5.94882Z" fill="black" stroke="black" stroke-linecap="round" stroke-linejoin="round"/>
</g>
<defs>
<clipPath id="clip0_42_735">
<rect width="16" height="16" fill="white"/>
</clipPath>
</defs>
</svg>
