<svg xmlns="http://www.w3.org/2000/svg" viewBox="0 0 25 25" id="Facebook-Line--Streamline-Mingcute.svg" height="25" width="25"><desc>Facebook Line Streamline Icon: https://streamlinehq.com</desc><g fill="none" fill-rule="evenodd"><path d="M25 0v25H0V0h25ZM13.117708333333335 24.227083333333333l-0.011458333333333334 0.0020833333333333337 -0.07395833333333333 0.03645833333333334 -0.020833333333333336 0.0041666666666666675 -0.014583333333333335 -0.0041666666666666675 -0.07395833333333333 -0.03645833333333334c-0.010416666666666668 -0.0041666666666666675 -0.01979166666666667 -0.0010416666666666669 -0.025 0.005208333333333334l-0.0041666666666666675 0.010416666666666668 -0.017708333333333336 0.44583333333333336 0.005208333333333334 0.020833333333333336 0.010416666666666668 0.013541666666666667 0.10833333333333334 0.07708333333333334 0.015625 0.0041666666666666675 0.0125 -0.0041666666666666675 0.10833333333333334 -0.07708333333333334 0.0125 -0.01666666666666667 0.0041666666666666675 -0.017708333333333336 -0.017708333333333336 -0.4447916666666667c-0.0020833333333333337 -0.010416666666666668 -0.009375 -0.017708333333333336 -0.017708333333333336 -0.01875Zm0.2760416666666667 -0.11770833333333335 -0.013541666666666667 0.0020833333333333337 -0.19270833333333334 0.096875 -0.010416666666666668 0.010416666666666668 -0.003125 0.011458333333333334 0.01875 0.4479166666666667 0.005208333333333334 0.0125 0.008333333333333335 0.007291666666666668 0.20937500000000003 0.096875c0.0125 0.0041666666666666675 0.023958333333333335 0 0.030208333333333337 -0.008333333333333335l0.0041666666666666675 -0.014583333333333335 -0.03541666666666667 -0.6395833333333334c-0.003125 -0.0125 -0.010416666666666668 -0.020833333333333336 -0.020833333333333336 -0.02291666666666667Zm-0.7447916666666667 0.0020833333333333337a0.023958333333333335 0.023958333333333335 0 0 0 -0.028125 0.00625l-0.00625 0.014583333333333335 -0.03541666666666667 0.6395833333333334c0 0.0125 0.007291666666666668 0.020833333333333336 0.017708333333333336 0.025l0.015625 -0.0020833333333333337 0.20937500000000003 -0.096875 0.010416666666666668 -0.008333333333333335 0.0041666666666666675 -0.011458333333333334 0.017708333333333336 -0.4479166666666667 -0.003125 -0.0125 -0.010416666666666668 -0.010416666666666668 -0.19166666666666668 -0.09583333333333334Z" stroke-width="1"></path><path fill="#3e3e41" d="M4.166666666666667 12.5a8.333333333333334 8.333333333333334 0 1 1 9.375 8.26875V14.583333333333334h2.0833333333333335a1.0416666666666667 1.0416666666666667 0 1 0 0 -2.0833333333333335h-2.0833333333333335v-2.0833333333333335a1.0416666666666667 1.0416666666666667 0 0 1 1.0416666666666667 -1.0416666666666667h0.5208333333333334a1.0416666666666667 1.0416666666666667 0 1 0 0 -2.0833333333333335H14.583333333333334a3.125 3.125 0 0 0 -3.125 3.125v2.0833333333333335H9.375a1.0416666666666667 1.0416666666666667 0 1 0 0 2.0833333333333335h2.0833333333333335v6.185416666666667A8.334375 8.334375 0 0 1 4.166666666666667 12.5Zm8.333333333333334 10.416666666666668c5.753125 0 10.416666666666668 -4.663541666666667 10.416666666666668 -10.416666666666668S18.253125 2.0833333333333335 12.5 2.0833333333333335 2.0833333333333335 6.746875000000001 2.0833333333333335 12.5s4.663541666666667 10.416666666666668 10.416666666666668 10.416666666666668Z" stroke-width="1"></path></g></svg>