<svg width="21" height="23" viewBox="0 0 21 23" fill="none" xmlns="http://www.w3.org/2000/svg">
<path d="M14.278 4.0265C20.7927 6.93773 21.713 15.8097 15.9345 19.996C14.3542 21.1409 12.4529 21.7578 10.5015 21.759C3.36752 21.7594 -1.0917 14.0372 2.47477 7.85871C2.84549 7.21659 3.29181 6.6213 3.80441 6.08557C4.66865 7.29362 5.80949 8.27728 7.13158 8.95442C7.17849 5.94926 8.56251 3.12138 10.907 1.24072C11.7907 2.42602 12.9476 3.38146 14.278 4.0265Z" stroke="#C4C4C4" stroke-width="1.5" stroke-linecap="round" stroke-linejoin="round"/>
<path d="M10.5015 18.3892C13.7442 18.3945 15.7766 14.8876 14.1599 12.0767C13.5056 10.9391 12.3586 10.1715 11.0575 10.0005C9.89752 11.0384 9.13335 12.4465 8.89517 13.9848C8.0298 13.7728 7.2153 13.3905 6.49918 12.8604C5.60256 15.5853 7.63275 18.3899 10.5015 18.3892Z" stroke="#C4C4C4" stroke-width="1.5" stroke-linecap="round" stroke-linejoin="round"/>
</svg>
