<svg xmlns="http://www.w3.org/2000/svg" fill="none" viewBox="-0.895 -0.895 25 25" id="Shipping-Logistic-Free-Shipping-Delivery-Truck--Streamline-Ultimate.svg" height="25" width="25"><desc>Shipping Logistic Free Shipping Delivery Truck Streamline Icon: https://streamlinehq.com</desc><path stroke="#d02027" stroke-linecap="round" stroke-linejoin="round" d="M3.6265625000000004 18.374583333333334c0 0.512941 0.20377412916666668 1.0048962916666666 0.5665077458333334 1.36764925 0.3627239458333334 0.3627529583333334 0.8546889083333334 0.5665174166666667 1.3676589208333334 0.5665174166666667s1.004934975 -0.20376445833333334 1.3676589208333334 -0.5665174166666667C7.291121704166668 19.379479625000002 7.4948958333333335 18.887524333333335 7.4948958333333335 18.374583333333334c0 -0.512941 -0.20377412916666668 -1.0048962916666666 -0.5665077458333334 -1.36764925C6.565664141666667 16.644181125 6.073699179166667 16.440416666666668 5.560729166666667 16.440416666666668s-1.004934975 0.20376445833333334 -1.3676589208333334 0.5665174166666667C3.830336629166667 17.369687041666666 3.6265625000000004 17.861642333333336 3.6265625000000004 18.374583333333334Z" stroke-width="1.79"></path><path stroke="#d02027" stroke-linecap="round" stroke-linejoin="round" d="M15.956875000000002 18.374583333333334c0 0.512941 0.20376445833333334 1.0048962916666666 0.5665174166666667 1.36764925S17.37810066666667 20.30875 17.891041666666666 20.30875c0.512941 0 1.0048962916666666 -0.20376445833333334 1.36764925 -0.5665174166666667S19.825208333333336 18.887524333333335 19.825208333333336 18.374583333333334c0 -0.512941 -0.20376445833333334 -1.0048962916666666 -0.5665174166666667 -1.36764925S18.403982666666668 16.440416666666668 17.891041666666666 16.440416666666668c-0.512941 0 -1.0048962916666666 0.20376445833333334 -1.36764925 0.5665174166666667S15.956875000000002 17.861642333333336 15.956875000000002 18.374583333333334Z" stroke-width="1.79"></path><path stroke="#d02027" stroke-linecap="round" stroke-linejoin="round" d="M7.4948958333333335 18.374583333333334h8.461979166666667" stroke-width="1.79"></path><path stroke="#d02027" stroke-linecap="round" stroke-linejoin="round" d="M19.825208333333336 18.374583333333334h1.6923958333333335c0.2564705 0 0.5023997916666667 -0.10193058333333334 0.683824625 -0.28325870833333333 0.181328125 -0.181328125 0.28325870833333333 -0.42735412500000003 0.28325870833333333 -0.683824625V3.8683333333333336c0 -0.2564898416666667 -0.10193058333333334 -0.5024674875 -0.28325870833333333 -0.6838342958333334C22.020003958333337 3.0031419 21.774074666666667 2.90125 21.51760416666667 2.90125H3.6265431583333334c-0.2564898416666667 0 -0.5024674875 0.10189190000000001 -0.6838342958333334 0.2832490375 -0.18136680833333335 0.18136680833333335 -0.2832490375 0.4273444541666667 -0.2832490375 0.6838342958333334v7.579032083333334l-1.5956875 1.3181345833333333c-0.10585500750000001 0.090809125 -0.19082294916666667 0.203377625 -0.2490800491666667 0.3300655416666667 -0.058256132916666675 0.12668791666666668 -0.08842429750000001 0.2644972916666667 -0.08843493541666667 0.40395070833333335V17.407500000000002c0 0.2564705 0.10188803166666668 0.5024965 0.28325193875000004 0.683824625 0.18136680833333335 0.181328125 0.4273444541666667 0.28325870833333333 0.6838342958333334 0.28325870833333333h1.9341666666666668" stroke-width="1.79"></path><path stroke="#d02027" stroke-linecap="round" stroke-linejoin="round" d="M5.560729166666667 13.539166666666668V7.736666666666667H7.253125000000001" stroke-width="1.79"></path><path stroke="#d02027" stroke-linecap="round" stroke-linejoin="round" d="M7.253125000000001 10.637916666666667H5.560729166666667" stroke-width="1.79"></path><path stroke="#d02027" stroke-linecap="round" stroke-linejoin="round" d="M16.25957208333333 7.736666666666667h-1.6923958333333335v5.8025h1.6923958333333335" stroke-width="1.79"></path><path stroke="#d02027" stroke-linecap="round" stroke-linejoin="round" d="M16.25957208333333 10.637916666666667h-1.6923958333333335" stroke-width="1.79"></path><path stroke="#d02027" stroke-linecap="round" stroke-linejoin="round" d="M20.30875 7.736666666666667h-1.6923958333333335v5.8025H20.30875" stroke-width="1.79"></path><path stroke="#d02027" stroke-linecap="round" stroke-linejoin="round" d="M20.30875 10.637916666666667h-1.6923958333333335" stroke-width="1.79"></path><path stroke="#d02027" stroke-linecap="round" stroke-linejoin="round" d="M9.791718750000001 13.539166666666668V7.736666666666667h1.2088541666666668c0.32058812500000006 0 0.628120625 0.12736487500000002 0.8548049583333334 0.35406855000000004 0.22668433333333335 0.226703675 0.35404920833333337 0.53417815 0.35404920833333337 0.8547856166666667 0 0.3206074666666667 -0.12736487500000002 0.6280819416666668 -0.35404920833333337 0.8548049583333334 -0.22668433333333335 0.22668433333333335 -0.5342168333333334 0.35404920833333337 -0.8548049583333334 0.35404920833333337h-1.2088541666666668" stroke-width="1.79"></path><path stroke="#d02027" stroke-linecap="round" stroke-linejoin="round" d="M9.791718750000001 10.154375h0.4835416666666667c0.512941 0 1.0048962916666666 0.20376445833333334 1.36764925 0.5665174166666667s0.5665174166666667 0.8547082500000001 0.5665174166666667 1.36764925V13.539166666666668" stroke-width="1.79"></path></svg>