<svg width="12" height="10" viewBox="0 0 12 10" fill="none" xmlns="http://www.w3.org/2000/svg">
<path d="M8.31567 4.88276C9.83899 4.88276 10.6958 4.0682 10.6958 2.62009C10.6958 1.17199 9.83899 0.357422 8.31567 0.357422C6.79239 0.357422 5.93555 1.17199 5.93555 2.62009C5.93555 4.0682 6.79239 4.88276 8.31567 4.88276Z" stroke="black" stroke-opacity="0.75" stroke-linecap="round" stroke-linejoin="round"/>
<path d="M8.31592 2.18164V3.05746" stroke="black" stroke-opacity="0.75" stroke-linecap="round" stroke-linejoin="round"/>
<path d="M1.05927 4.75433L1.59495 4.72282C2.21317 4.68646 2.83359 4.74115 3.43423 4.88496L4.32368 5.09792C4.8068 5.21359 5.12735 5.64888 5.07637 6.12001C5.01669 6.67153 4.47647 7.0585 3.90235 6.96099L3.06323 6.81846L6.02182 7.32281L9.08625 6.63139C9.58201 6.51955 10.0811 6.8035 10.2118 7.2716C10.3331 7.70646 10.0956 8.15924 9.65714 8.3286L7.20589 9.27539C6.01351 9.73596 4.68484 9.76481 3.47159 9.35646L0.930176 8.5011" stroke="black" stroke-opacity="0.75" stroke-linecap="round" stroke-linejoin="round"/>
</svg>
