<svg viewBox="-0.895 -0.895 25 25" fill="none" xmlns="http://www.w3.org/2000/svg" id="Headset-Help--Streamline-Iconoir.svg" height="25" width="25"><desc>Headset Help Streamline Icon: https://streamlinehq.com</desc><path d="m3.1414735000000005 10.546817416666666 -0.513231125 0.12833195833333336c-0.9419391666666667 0.23548479166666667 -1.6026505000000002 1.0817794166666668 -1.6026505000000002 2.052731083333333v1.9856155c0 0.9709516666666668 0.6607113333333334 1.8171495833333335 1.6026505000000002 2.052731083333333l1.8403595833333335 0.4600415416666667c0.40066262500000005 0.10018983333333334 0.7887531666666667 -0.202797375 0.7887531666666667 -0.6158386666666668v-5.779483416666667c0 -0.4130412916666667 -0.3880905416666667 -0.7160285 -0.7887531666666667 -0.6158386666666668l-1.3271284583333336 0.3317095833333334Zm0 0v-0.5287044583333333c0 -4.674300583333334 3.789225916666667 -8.463623208333333 8.4635265 -8.463623208333333 4.674300583333334 0 8.4635265 3.789322625 8.4635265 8.463623208333333v0.5287044583333333m0 0 0.513231125 0.12833195833333336c0.9418424583333334 0.23548479166666667 1.6026505000000002 1.0817794166666668 1.6026505000000002 2.052731083333333v1.9856155c0 0.9709516666666668 -0.6607113333333334 1.8171495833333335 -1.6026505000000002 2.052731083333333l-0.513231125 0.12833195833333336m0 -6.347741583333334 -1.3271284583333336 -0.3317095833333334c-0.40066262500000005 -0.10018983333333334 -0.7887531666666667 0.202797375 -0.7887531666666667 0.6158386666666668v5.779483416666667c0 0.4130412916666667 0.3880905416666667 0.7160285 0.7887531666666667 0.6158386666666668l1.3271284583333336 -0.3317095833333334m-5.289655708333333 3.1739675000000003h3.1737740833333334c1.1686235 0 2.115881625 -0.9472581250000001 2.115881625 -2.115881625v-1.0580858750000002m-5.289655708333333 3.1739675000000003c0 -0.8763709166666668 -0.710516125 -1.5868870416666667 -1.5869837500000001 -1.5868870416666667h-3.1737740833333334c-0.8764676250000001 0 -1.5869837500000001 0.710516125 -1.5869837500000001 1.5868870416666667s0.710516125 1.5869837500000001 1.5869837500000001 1.5869837500000001h3.1737740833333334c0.8764676250000001 0 1.5869837500000001 -0.710516125 1.5869837500000001 -1.5869837500000001Z" stroke="#000000" stroke-width="1.79"></path></svg>