<svg width="29" height="25" viewBox="0 0 29 25" fill="none" xmlns="http://www.w3.org/2000/svg">
<path d="M25.3365 3.03337C24.6922 2.38873 23.9272 1.87736 23.0852 1.52847C22.2431 1.17958 21.3406 1 20.4292 1C19.5178 1 18.6152 1.17958 17.7732 1.52847C16.9312 1.87736 16.1662 2.38873 15.5218 3.03337L14.1846 4.37059L12.8474 3.03337C11.5459 1.73186 9.78066 1.00067 7.94004 1.00067C6.09943 1.00067 4.3342 1.73186 3.03269 3.03337C1.73118 4.33488 1 6.1001 1 7.94072C1 9.78133 1.73118 11.5466 3.03269 12.8481L4.36991 14.1853L14.1846 24L23.9993 14.1853L25.3365 12.8481C25.9812 12.2037 26.4926 11.4387 26.8414 10.5967C27.1903 9.75467 27.3699 8.85216 27.3699 7.94072C27.3699 7.02928 27.1903 6.12677 26.8414 5.28475C26.4926 4.44273 25.9812 3.6777 25.3365 3.03337Z" stroke="white" stroke-width="2" stroke-linecap="round" stroke-linejoin="round"/>
</svg>
