<svg width="30" height="27" viewBox="0 0 30 27" fill="none" xmlns="http://www.w3.org/2000/svg">
<path d="M26.3366 4.03337C25.6923 3.38873 24.9273 2.87736 24.0852 2.52847C23.2432 2.17958 22.3407 2 21.4293 2C20.5178 2 19.6153 2.17958 18.7733 2.52847C17.9313 2.87736 17.1662 3.38873 16.5219 4.03337L15.1847 5.3706L13.8474 4.03337C12.5459 2.73186 10.7807 2.00067 8.94007 2.00067C7.09945 2.00067 5.33421 2.73186 4.0327 4.03337C2.73118 5.33489 2 7.10012 2 8.94074C2 10.7814 2.73118 12.5466 4.0327 13.8481L5.36992 15.1853L15.1847 25.0001L24.9994 15.1853L26.3366 13.8481C26.9813 13.2038 27.4926 12.4387 27.8415 11.5967C28.1904 10.7547 28.37 9.85219 28.37 8.94074C28.37 8.0293 28.1904 7.12679 27.8415 6.28476C27.4926 5.44274 26.9813 4.67771 26.3366 4.03337Z" fill="#FF0404" stroke="#FF0404" stroke-width="3" stroke-linecap="round" stroke-linejoin="round"/>
</svg>
