<svg width="23" height="23" viewBox="0 0 23 23" fill="none" xmlns="http://www.w3.org/2000/svg">
<path d="M1.32358 4.09912C1.32358 2.56624 2.56608 1.32364 4.09897 1.32373H6.87436C8.40724 1.32364 9.64975 2.56624 9.64975 4.09912V6.87451C9.64975 8.4073 8.40715 9.64981 6.87436 9.6499H4.09897C2.56608 9.65 1.32358 8.4074 1.32358 6.87451V4.09912ZM1.32358 16.1258C1.32358 14.5929 2.56608 13.3503 4.09897 13.3504H6.87436C8.40715 13.3505 9.64975 14.593 9.64975 16.1258V18.9012C9.64975 20.434 8.40715 21.6765 6.87436 21.6766H4.09897C2.56608 21.6767 1.32358 20.4341 1.32358 18.9012V16.1258ZM13.3503 4.09912C13.3503 2.56624 14.5928 1.32364 16.1257 1.32373H18.9011C20.4339 1.32364 21.6764 2.56624 21.6764 4.09912V6.87451C21.6764 8.4074 20.4339 9.65 18.9011 9.6499H16.1257C14.5929 9.6499 13.3503 8.4073 13.3503 6.87451V4.09912ZM13.3503 16.1258C13.3503 14.593 14.5929 13.3504 16.1257 13.3504H18.9011C20.4338 13.3504 21.6764 14.593 21.6764 16.1258V18.9012C21.6764 20.4341 20.4339 21.6767 18.9011 21.6766H16.1257C14.5928 21.6767 13.3503 20.4341 13.3503 18.9012V16.1258Z" stroke="#C4C4C4" stroke-width="1.5" stroke-linecap="round" stroke-linejoin="round"/>
</svg>
