<svg width="23" height="23" viewBox="0 0 23 23" fill="none" xmlns="http://www.w3.org/2000/svg">
<path d="M1.32355 4.09912C1.32355 2.56624 2.56605 1.32364 4.09894 1.32373H6.87433C8.40721 1.32364 9.64972 2.56624 9.64972 4.09912V6.87451C9.64972 8.4073 8.40712 9.64981 6.87433 9.6499H4.09894C2.56605 9.65 1.32355 8.4074 1.32355 6.87451V4.09912ZM1.32355 16.1258C1.32355 14.5929 2.56605 13.3503 4.09894 13.3504H6.87433C8.40712 13.3505 9.64972 14.593 9.64972 16.1258V18.9012C9.64972 20.434 8.40712 21.6765 6.87433 21.6766H4.09894C2.56605 21.6767 1.32355 20.4341 1.32355 18.9012V16.1258ZM13.3502 4.09912C13.3502 2.56624 14.5927 1.32364 16.1256 1.32373H18.901C20.4339 1.32364 21.6764 2.56624 21.6764 4.09912V6.87451C21.6764 8.4074 20.4339 9.65 18.901 9.6499H16.1256C14.5928 9.6499 13.3502 8.4073 13.3502 6.87451V4.09912ZM13.3502 16.1258C13.3502 14.593 14.5928 13.3504 16.1256 13.3504H18.901C20.4338 13.3504 21.6764 14.593 21.6764 16.1258V18.9012C21.6764 20.4341 20.4339 21.6767 18.901 21.6766H16.1256C14.5927 21.6767 13.3502 20.4341 13.3502 18.9012V16.1258Z" stroke="url(#paint0_linear_196_1178)" stroke-width="1.5" stroke-linecap="round" stroke-linejoin="round"/>
<defs>
<linearGradient id="paint0_linear_196_1178" x1="2.99998" y1="22.0002" x2="27" y2="6.00024" gradientUnits="userSpaceOnUse">
<stop stop-color="#EF4A25"/>
<stop offset="0.266" stop-color="#F95C70"/>
<stop offset="0.686" stop-color="#F58921"/>
<stop offset="0.941" stop-color="#FF15F0"/>
</linearGradient>
</defs>
</svg>
