<svg xmlns="http://www.w3.org/2000/svg" viewBox="-0.895 -0.895 25 25" id="Live-Notice--Streamline-Ultimate.svg" height="25" width="25"><desc>Live Notice Streamline Icon: https://streamlinehq.com</desc><g><path d="M2.4177083333333336 4.835416666666667h18.374583333333334s1.9341666666666668 0 1.9341666666666668 1.9341666666666668v9.670833333333334s0 1.9341666666666668 -1.9341666666666668 1.9341666666666668h-18.374583333333334s-1.9341666666666668 0 -1.9341666666666668 -1.9341666666666668V6.769583333333334s0 -1.9341666666666668 1.9341666666666668 -1.9341666666666668" fill="none" stroke="#ffffff" stroke-linecap="round" stroke-linejoin="round" stroke-width="1.79"></path><path d="m9.187291666666667 14.506250000000001 0 -5.7831583333333345" fill="none" stroke="#ffffff" stroke-linecap="round" stroke-linejoin="round" stroke-width="1.79"></path><path d="M11.605 8.703750000000001v2.1179125A6.257029166666667 6.257029166666667 0 0 0 12.813854166666667 14.506250000000001a6.257029166666667 6.257029166666667 0 0 0 1.2088541666666668 -3.6652458333333335V8.703750000000001" fill="none" stroke="#ffffff" stroke-linecap="round" stroke-linejoin="round" stroke-width="1.79"></path><path d="M4.351875000000001 8.703750000000001v4.835416666666667a0.9670833333333334 0.9670833333333334 0 0 0 0.9670833333333334 0.9670833333333334H6.769583333333334" fill="none" stroke="#ffffff" stroke-linecap="round" stroke-linejoin="round" stroke-width="1.79"></path><g><path d="M18.858125 14.506250000000001H17.407500000000002a0.9670833333333334 0.9670833333333334 0 0 1 -0.9670833333333334 -0.9670833333333334v-3.8683333333333336a0.9670833333333334 0.9670833333333334 0 0 1 0.9670833333333334 -0.9670833333333334h1.450625" fill="none" stroke="#ffffff" stroke-linecap="round" stroke-linejoin="round" stroke-width="1.79"></path><path d="m16.440416666666668 11.605 2.4177083333333336 0" fill="none" stroke="#ffffff" stroke-linecap="round" stroke-linejoin="round" stroke-width="1.79"></path></g></g></svg>