<svg xmlns="http://www.w3.org/2000/svg" fill="none" viewBox="-0.5 -0.5 25 25" id="Map-Pin-Area-Duotone--Streamline-Phosphor.svg" height="25" width="25"><desc>Map Pin Area Duotone Streamline Icon: https://streamlinehq.com</desc><g id="map-pin-area-duotone"><path id="Vector" fill="#ffffff00" d="M17.25 7.5c0 5.25 -5.25 8.25 -5.25 8.25s-5.25 -3 -5.25 -8.25c0 -1.392384375 0.5531250000000001 -2.727740625 1.5376875 -3.7123125C9.272259375 2.8031249999999996 10.607624999999999 2.25 12 2.25s2.72775 0.5531250000000001 3.7123125 1.5376875C16.696875 4.772259375 17.25 6.107615625000001 17.25 7.5Z" stroke-width="1"></path><path id="Vector_2" fill="#000000" d="M10.5 7.5c0 -0.296671875 0.0879375 -0.586678125 0.25275000000000003 -0.8333531249999999 0.16490624999999998 -0.24667500000000003 0.39909374999999997 -0.43893750000000004 0.67321875 -0.55246875 0.274125 -0.11353125 0.5757187500000001 -0.14323125 0.866625 -0.085359375 0.29100000000000004 0.057881249999999995 0.5582812500000001 0.20074687500000002 0.76809375 0.410521875 0.20971875 0.209775 0.35259375000000004 0.47705624999999996 0.41053124999999996 0.768028125 0.05784375 0.290971875 0.028124999999999997 0.592565625 -0.08540625 0.866653125 -0.11353125 0.274096875 -0.3058125 0.5083593750000001 -0.55246875 0.6731812500000001C12.5866875 8.912025 12.29671875 9 12 9c-0.39778125000000003 0 -0.77934375 -0.158034375 -1.0606875 -0.43934062500000004C10.6580625 8.279353125 10.5 7.897828125 10.5 7.5Zm-4.5 0c0 -1.591303125 0.6321375 -3.117421875 1.7573625000000002 -4.242637500000001C8.882578125 2.1321375 10.4086875 1.5 12 1.5c1.5913125 0 3.11746875 0.6321375 4.2426562500000005 1.7573625000000002C17.36784375 4.382578125 18 5.908696875 18 7.5c0 5.620312500000001 -5.398125 8.769375 -5.625 8.9015625 -0.11334375000000001 0.06478125 -0.24159375 0.09890625 -0.3721875 0.09890625 -0.13059375 0 -0.25884375000000004 -0.034125 -0.3721875 -0.09890625C11.398125 16.269375 6 13.125 6 7.5Zm1.5 0c0 3.9562500000000003 3.3600000000000003 6.5821875 4.5 7.359375 1.1390625 -0.7762499999999999 4.5 -3.4031249999999997 4.5 -7.359375 0 -1.1934749999999998 -0.47409375000000004 -2.3380687499999997 -1.31803125 -3.1819781249999997C14.33803125 3.474103125 13.193437499999998 3 12 3c-1.1934375 0 -2.3380312500000002 0.474103125 -3.1819781249999997 1.318021875C7.974103125000001 5.16193125 7.5 6.306525 7.5 7.5Zm11.5096875 6.3403125c-0.18459375 -0.060937500000000006 -0.38568749999999996 -0.04790625 -0.5608125 0.03646875 -0.175125 0.084375 -0.3106875 0.23343750000000002 -0.378 0.415875 -0.0673125 0.18234375 -0.061312500000000006 0.38371875 0.016968749999999998 0.56165625 0.07828125 0.1779375 0.2225625 0.3185625 0.40246875000000004 0.39225C20.038125 15.819375 21 16.58625 21 17.25c0 1.2525 -3.42375 3 -9 3s-9 -1.7475 -9 -3c0 -0.6637500000000001 0.961875 -1.430625 2.5096875 -2.0025 0.179915625 -0.0736875 0.32420625000000003 -0.21431250000000002 0.40245937500000006 -0.39225 0.07824375 -0.1779375 0.0843375 -0.37931250000000005 0.016978125 -0.56165625 -0.06735000000000001 -0.1824375 -0.202884375 -0.3315 -0.37801874999999996 -0.415875 -0.17514375000000001 -0.084375 -0.37620000000000003 -0.09740625 -0.56079375 -0.03646875C2.739375 14.6709375 1.5 15.8821875 1.5 17.25c0 2.9231249999999998 5.4103125 4.5 10.5 4.5s10.5 -1.576875 10.5 -4.5c0 -1.3678124999999999 -1.2393750000000001 -2.5790625 -3.4903125 -3.4096874999999995Z" stroke-width="1"></path></g></svg>