<svg viewBox="-0.895 -0.895 25 25" xmlns="http://www.w3.org/2000/svg" id="Common-File-Text-Check--Streamline-Ultimate.svg" height="25" width="25"><desc>Common File Text Check Streamline Icon: https://streamlinehq.com</desc><path d="m4.351875000000001 8.220208333333334 9.187291666666667 0" fill="none" stroke="#050506" stroke-linecap="round" stroke-linejoin="round" stroke-width="1.79"></path><path d="m4.351875000000001 11.121458333333335 5.8025 0" fill="none" stroke="#050506" stroke-linecap="round" stroke-linejoin="round" stroke-width="1.79"></path><path d="m4.351875000000001 5.318958333333334 6.769583333333334 0" fill="none" stroke="#050506" stroke-linecap="round" stroke-linejoin="round" stroke-width="1.79"></path><path d="m4.351875000000001 14.022708333333334 3.8683333333333336 0" fill="none" stroke="#050506" stroke-linecap="round" stroke-linejoin="round" stroke-width="1.79"></path><path d="m4.351875000000001 16.923958333333335 3.8683333333333336 0" fill="none" stroke="#050506" stroke-linecap="round" stroke-linejoin="round" stroke-width="1.79"></path><path d="M10.154375 22.726458333333333h-8.703750000000001a0.9670833333333334 0.9670833333333334 0 0 1 -0.9670833333333334 -0.9670833333333334v-20.30875a0.9670833333333334 0.9670833333333334 0 0 1 0.9670833333333334 -0.9670833333333334h12.855438750000001a0.9670833333333334 0.9670833333333334 0 0 1 0.6837279166666667 0.2833554166666667L18.574769583333335 4.351875000000001a0.9670833333333334 0.9670833333333334 0 0 1 0.2833554166666667 0.6837279166666667V8.220208333333334" fill="none" stroke="#050506" stroke-linecap="round" stroke-linejoin="round" stroke-width="1.79"></path><path d="M11.121458333333335 16.923958333333335a5.8025 5.8025 0 1 0 11.605 0 5.8025 5.8025 0 1 0 -11.605 0Z" fill="none" stroke="#050506" stroke-linecap="round" stroke-linejoin="round" stroke-width="1.79"></path><path d="m19.50993916666667 15.237365 -2.809377083333333 3.7455137500000006a0.7272466666666667 0.7272466666666667 0 0 1 -1.09377125 0.07833375000000001l-1.450625 -1.450625" fill="none" stroke="#050506" stroke-linecap="round" stroke-linejoin="round" stroke-width="1.79"></path></svg>