<svg xmlns="http://www.w3.org/2000/svg" fill="none" viewBox="0 0 25 25" id="Pencil-Line--Streamline-Core-Remix.svg" height="25" width="25"><desc>Pencil Line Streamline Icon: https://streamlinehq.com</desc><g id="Interface Essential/Edit/pencil-line--edit-edition-form-pen-text-write"><path id="Union" fill="#000000" fill-rule="evenodd" d="M19.268035714285716 2.283642857142857c0.0817857142857143 -0.03396428571428571 0.1698214285714286 -0.051500000000000004 0.25875000000000004 -0.051500000000000004s0.1767857142857143 0.017535714285714286 0.25875000000000004 0.051500000000000004c0.0817857142857143 0.03394642857142857 0.15571428571428572 0.08358928571428571 0.21767857142857144 0.14580357142857145l0.0032142857142857142 0.0032321428571428575 1.8921428571428573 1.884232142857143 0.0032142857142857142 0.0032142857142857142c0.06250000000000001 0.06171428571428572 0.1117857142857143 0.13489285714285715 0.14535714285714285 0.2151607142857143 0.03357142857142857 0.0802857142857143 0.05089285714285715 0.1662142857142857 0.05089285714285715 0.25289285714285714s-0.017321428571428574 0.17262500000000003 -0.05089285714285715 0.25289285714285714c-0.03357142857142857 0.0802857142857143 -0.08285714285714285 0.1534464285714286 -0.14535714285714285 0.2151607142857143l0 -0.00001785714285714286 -0.004464285714285715 0.004410714285714286 -11.729285714285714 11.715857142857143 -3.454839285714286 0.6193214285714287 0.5761607142857142 -3.4886250000000003 11.756535714285715 -11.67332142857143 0.004464285714285715 -0.004410714285714286c0.06196428571428572 -0.06221428571428572 0.13589285714285715 -0.11185714285714286 0.21767857142857144 -0.14580357142857145ZM19.526785714285715 0c-0.3823214285714286 0 -0.7608928571428571 0.07538285714285714 -1.114107142857143 0.2219142857142857 -0.35214285714285715 0.1460892857142857 -0.6721250000000001 0.3600767857142857 -0.9415178571428572 0.6299089285714286L5.4606071428571425 12.777410714285715c-0.16642857142857145 0.16525 -0.27655357142857145 0.3787321428571429 -0.31476785714285715 0.610125l-0.8924642857142857 5.403892857142858c-0.05907142857142857 0.35767857142857146 0.05928571428571429 0.7217857142857144 0.3173928571428572 0.9764285714285714 0.25812500000000005 0.2544642857142857 0.6238214285714285 0.3678571428571429 0.9806785714285715 0.30392857142857144l5.354767857142858 -0.9598214285714286c0.2241607142857143 -0.04017857142857143 0.4306607142857143 -0.1480357142857143 0.5918035714285714 -0.30892857142857144l11.972339285714286 -11.958750000000002 0.0025 -0.002428571428571429c0.27089285714285716 -0.26828571428571435 0.48625 -0.5874464285714286 0.6335714285714286 -0.9393392857142857 0.14767857142857144 -0.35296428571428573 0.22375 -0.7316964285714286 0.22375 -1.1143392857142858 0 -0.3826428571428572 -0.07607142857142857 -0.7613750000000001 -0.22375 -1.1143392857142858 -0.14732142857142858 -0.352125 -0.3628571428571429 -0.6714821428571428 -0.634107142857143 -0.939875l-0.0019642857142857144 -0.001892857142857143L21.58482142857143 0.8543035714285715l-0.0017857142857142859 -0.0018446428571428574c-0.26946428571428577 -0.27013035714285716 -0.5898214285714286 -0.48434107142857147 -0.9421428571428572 -0.6305446428571428C20.28767857142857 0.0753825 19.909107142857145 0 19.526785714285715 0ZM1.5625 21.875c-0.8629446428571429 0 -1.5625 0.6996428571428571 -1.5625 1.5625S0.6995553571428572 25 1.5625 25h21.864642857142858c0.8630357142857144 0 1.5625 -0.6996428571428571 1.5625 -1.5625s-0.6994642857142858 -1.5625 -1.5625 -1.5625H1.5625Z" clip-rule="evenodd" stroke-width="1"></path></g></svg>