<svg xmlns="http://www.w3.org/2000/svg" fill="#000000" class="bi bi-pencil" viewBox="0 0 25 25" id="Pencil--Streamline-Bootstrap.svg" height="25" width="25"><desc>Pencil Streamline Icon: https://streamlinehq.com</desc><path d="M18.978125000000002 0.228125a0.78125 0.78125 0 0 1 1.10625 0l4.6875 4.6875a0.78125 0.78125 0 0 1 0 1.10625l-15.625 15.625a0.78125 0.78125 0 0 1 -0.2625 0.171875l-7.8125 3.125a0.78125 0.78125 0 0 1 -1.015625 -1.015625l3.125 -7.8125a0.78125 0.78125 0 0 1 0.171875 -0.2625zM17.5109375 3.90625 21.09375 7.4890625 23.1140625 5.46875 19.53125 1.8859375zm2.478125 4.6875L16.40625 5.0109375 6.25 15.1671875V15.625h0.78125a0.78125 0.78125 0 0 1 0.78125 0.78125v0.78125h0.78125a0.78125 0.78125 0 0 1 0.78125 0.78125v0.78125h0.45781249999999996zm-15.251562499999999 8.0859375 -0.165625 0.165625 -2.3875 5.9703125 5.9703125 -2.3875 0.165625 -0.165625A0.78125 0.78125 0 0 1 7.8125 19.53125V18.75h-0.78125a0.78125 0.78125 0 0 1 -0.78125 -0.78125V17.1875h-0.78125a0.78125 0.78125 0 0 1 -0.7312500000000001 -0.5078125" stroke-width="1"></path></svg>