<svg width="23" height="21" viewBox="0 0 23 21" fill="none" xmlns="http://www.w3.org/2000/svg">
<path d="M4.66828 4.6681V3.6684C4.66828 2.25342 5.81525 1.10645 7.23014 1.10645H15.7698C17.1846 1.10654 18.3317 2.25351 18.3317 3.6684V4.6681M4.66828 4.6681C4.93581 4.57361 5.22279 4.52235 5.52223 4.52235H17.4777C17.7772 4.52235 18.0642 4.57361 18.3317 4.6681M4.66828 4.6681C3.64441 5.03004 2.96 5.99821 2.96028 7.0842V8.08391M18.3317 4.6681C19.3556 5.03004 20.04 5.99831 20.0397 7.0842V8.08391M2.96028 8.08391C3.22791 7.98941 3.5148 7.93815 3.81433 7.93815H19.1857C19.4766 7.93787 19.7654 7.98715 20.0397 8.08391M2.96028 8.08391C1.9652 8.43574 1.25238 9.38428 1.25238 10.5001V17.3318C1.25238 18.7467 2.39935 19.8938 3.81433 19.8938H19.1857C20.6006 19.8938 21.7476 18.7467 21.7476 17.3318V10.5001C21.7479 9.41411 21.0635 8.44594 20.0397 8.08391" stroke="#C4C4C4" stroke-width="1.5" stroke-linecap="round" stroke-linejoin="round"/>
</svg>
