<svg width="23" height="21" viewBox="0 0 23 21" fill="none" xmlns="http://www.w3.org/2000/svg">
<path d="M4.66834 4.6681V3.6684C4.66834 2.25342 5.81532 1.10645 7.2302 1.10645H15.7699C17.1847 1.10654 18.3318 2.25351 18.3318 3.6684V4.6681M4.66834 4.6681C4.93588 4.57361 5.22285 4.52235 5.52229 4.52235H17.4778C17.7772 4.52235 18.0642 4.57361 18.3318 4.6681M4.66834 4.6681C3.64447 5.03004 2.96006 5.99821 2.96034 7.0842V8.08391M18.3318 4.6681C19.3556 5.03004 20.04 5.99831 20.0398 7.0842V8.08391M2.96034 8.08391C3.22797 7.98941 3.51486 7.93815 3.81439 7.93815H19.1857C19.4767 7.93787 19.7654 7.98715 20.0398 8.08391M2.96034 8.08391C1.96526 8.43574 1.25244 9.38428 1.25244 10.5001V17.3318C1.25244 18.7467 2.39941 19.8938 3.81439 19.8938H19.1857C20.6007 19.8938 21.7477 18.7467 21.7477 17.3318V10.5001C21.7479 9.41411 21.0635 8.44594 20.0398 8.08391" stroke="url(#paint0_linear_31_738)" stroke-width="1.5" stroke-linecap="round" stroke-linejoin="round"/>
<defs>
<linearGradient id="paint0_linear_31_738" x1="6.06144e-05" y1="22.5" x2="28.5001" y2="2.5" gradientUnits="userSpaceOnUse">
<stop stop-color="#D02027"/>
<stop offset="0.28" stop-color="#F58822"/>
<stop offset="0.62" stop-color="#F95C70"/>
<stop offset="1" stop-color="#FF15F0"/>
</linearGradient>
</defs>
</svg>
