<svg viewBox="0 0 25 25" xmlns="http://www.w3.org/2000/svg" id="Scissors-2--Streamline-Ultimate.svg" height="25" width="25"><desc>Scissors 2 Streamline Icon: https://streamlinehq.com</desc><path d="M0.5208333333333334 6.248958333333333a3.6458333333333335 3.6458333333333335 0 1 0 7.291666666666667 0 3.6458333333333335 3.6458333333333335 0 1 0 -7.291666666666667 0Z" fill="none" stroke="#000000" stroke-linecap="round" stroke-linejoin="round" stroke-width="1"></path><path d="M11.6125 11.178125000000001 24.479166666666668 18.839583333333334a2.30625 2.30625 0 0 1 -3.0260416666666665 0.78125L4.847916666666667 9.83125" fill="none" stroke="#000000" stroke-linecap="round" stroke-linejoin="round" stroke-width="1"></path><path d="M0.5208333333333334 18.748958333333334a3.6458333333333335 3.6458333333333335 0 1 0 7.291666666666667 0 3.6458333333333335 3.6458333333333335 0 1 0 -7.291666666666667 0Z" fill="none" stroke="#000000" stroke-linecap="round" stroke-linejoin="round" stroke-width="1"></path><path d="M13.832291666666668 12.5 24.479166666666668 6.159375000000001a2.3052083333333337 2.3052083333333337 0 0 0 -3.0260416666666665 -0.78125L4.847916666666667 15.166666666666668" fill="none" stroke="#000000" stroke-linecap="round" stroke-linejoin="round" stroke-width="1"></path></svg>