<svg viewBox="-0.5 -0.5 16 16" fill="none" xmlns="http://www.w3.org/2000/svg" id="Share--Streamline-Unicons.svg" height="16" width="16"><desc>Share Streamline Icon: https://streamlinehq.com</desc><path d="m14.6348125 6.9803125 -5.880062499999999 -5.88c-0.1028125 -0.1028125 -0.23375 -0.17275 -0.3763125 -0.201125 -0.1425625 -0.0283125 -0.290375 -0.013749999999999998 -0.42462500000000003 0.0418125 -0.1343125 0.055624999999999994 -0.24906250000000002 0.1498125 -0.32981249999999995 0.27068749999999997s-0.1239375 0.26287499999999997 -0.1239375 0.40825v2.605625c-2.0078125 0.18575000000000003 -3.8740625 1.114125 -5.233499999999999 2.6034375C0.9071875 8.3181875 0.15237499999999998 10.2611875 0.15 12.2775v1.1025625c0.000125 0.15256250000000002 0.04768750000000001 0.3013125 0.13618750000000002 0.42562500000000003 0.08843749999999999 0.12425 0.2134375 0.218 0.3575625 0.268125 0.1440625 0.0500625 0.3001875 0.054000000000000006 0.4466875 0.011375 0.1465 -0.042624999999999996 0.276125 -0.1298125 0.37081250000000004 -0.2494375 0.7200624999999999 -0.8563125 1.6036249999999999 -1.5605 2.5989375 -2.0715 0.9953125 -0.5109375 2.0825625 -0.8185 3.1980625000000003 -0.9045625 0.03675 -0.004375 0.12862500000000002 -0.01175 0.2418125 -0.019125v2.5395000000000003c0 0.145375 0.043125000000000004 0.2874375 0.1239375 0.40825s0.1955 0.21499999999999997 0.32981249999999995 0.270625c0.13424999999999998 0.0556875 0.2820625 0.0701875 0.42462500000000003 0.041875 0.1425625 -0.028375 0.2734375 -0.098375 0.3763125 -0.201125l5.880062499999999 -5.880062499999999c0.1378125 -0.1378125 0.2151875 -0.32475 0.2151875 -0.519625 0 -0.19487500000000002 -0.077375 -0.3818125 -0.2151875 -0.5196875Zm-5.66475 4.625437499999999V10.0725c0 -0.1949375 -0.07743749999999999 -0.3818125 -0.21525 -0.51975 -0.1378125 -0.1378125 -0.32481250000000006 -0.21525 -0.51975 -0.21525 -0.1874375 0 -0.9525625 0.03675 -1.1480625 0.0624375 -1.9809375 0.182625 -3.8665624999999997 0.9351875 -5.42875 2.1668125 0.1773125 -1.6210625 0.9463125 -3.1198125 2.1598125 -4.20925 1.2135625 -1.089375 2.78625 -1.6929375 4.417 -1.695 0.1949375 0 0.3819375 -0.07743749999999999 0.51975 -0.2153125 0.1378125 -0.1378125 0.21525 -0.32475 0.21525 -0.5196875V3.3942499999999995L13.0758125 7.5l-4.1057500000000005 4.1057500000000005Z" fill="#ffffff" stroke-width="1"></path></svg>