<svg xmlns="http://www.w3.org/2000/svg" viewBox="-0.5 -0.5 25 25" fill="#000000" id="Share-Fat-Light--Streamline-Phosphor.svg" height="25" width="25"><desc>Share Fat Light Streamline Icon: https://streamlinehq.com</desc><path d="m23.572396875 11.117503124999999 -8.553 -8.553c-0.34938749999999996 -0.34895624999999997 -0.945515625 -0.18883125 -1.0730250000000001 0.288234375 -0.0144 0.053840625 -0.0217125 0.109340625 -0.021759375 0.165075v4.511709375c-5.82459375 0.3838125 -12.8712 5.8801875 -13.677318750000001 12.900065625 -0.0957375 0.8174250000000001 0.72931875 1.43195625 1.4850937499999999 1.10615625 0.13498125 -0.058190625 0.25651875 -0.1435875 0.357009375 -0.25085625 1.203834375 -1.28401875 5.527378125 -5.37343125 11.835215625 -5.637496875v4.476421875c0.00043125 0.493809375 0.5352656250000001 0.801965625 0.9627000000000001 0.554690625 0.048243749999999995 -0.027909375 0.09264375 -0.0619875 0.132084375 -0.10138124999999999l8.553 -8.553c0.250134375 -0.25044375 0.250134375 -0.6561656250000001 0 -0.90661875ZM15.2075625 18.57571875v-3.5837062499999996c0 -0.3542625 -0.2872125 -0.6414562500000001 -0.641475 -0.641475 -2.964684375 0 -5.854528125 0.775115625 -8.587209375 2.3039625 -1.5927562499999999 0.89473125 -3.0598968749999997 1.9966125 -4.3631062499999995 3.276871875 0.502490625 -2.83959375 2.155359375 -5.55945 4.70415 -7.726565625000001 2.523140625 -2.1371812500000003 5.60435625 -3.4137187499999997 8.246165625 -3.4137187499999997 0.3542625 -0.00001875 0.641475 -0.2872125 0.641475 -0.641475V4.566974999999999l7.0038374999999995 7.0038374999999995Z" stroke-width="1"></path></svg>