<svg xmlns="http://www.w3.org/2000/svg" fill="#f48321" class="bi bi-sort-down-alt" viewBox="0 0 25 25" id="Sort-Down-Alt--Streamline-Bootstrap.svg" height="25" width="25"><desc>Sort Down Alt Streamline Icon: https://streamlinehq.com</desc><path d="M5.46875 5.46875a0.78125 0.78125 0 0 0 -1.5625 0v13.7390625l-1.790625 -1.7921875a0.78125 0.78125 0 0 0 -1.10625 1.10625l3.125 3.1234375 0.010937500000000001 0.010937500000000001a0.7765625 0.7765625 0 0 0 1.09375 -0.009375l3.125 -3.125a0.78125 0.78125 0 0 0 -1.1046875 -1.10625L5.46875 19.2078125zm6.25 0.78125a0.78125 0.78125 0 0 1 0 -1.5625h1.5625a0.78125 0.78125 0 0 1 0 1.5625zm0 4.6875a0.78125 0.78125 0 0 1 0 -1.5625h4.6875a0.78125 0.78125 0 0 1 0 1.5625zm0 4.6875a0.78125 0.78125 0 0 1 0 -1.5625h7.8125a0.78125 0.78125 0 0 1 0 1.5625zM10.9375 19.53125a0.78125 0.78125 0 0 0 0.78125 0.78125h10.9375a0.78125 0.78125 0 0 0 0 -1.5625h-10.9375a0.78125 0.78125 0 0 0 -0.78125 0.78125" stroke-width="1"></path></svg>