<svg xmlns="http://www.w3.org/2000/svg" viewBox="0 0 25 25" fill="#ffb800" id="Star--Streamline-Tabler-Filled.svg" height="25" width="25"><desc>Star Streamline Icon: https://streamlinehq.com</desc><path d="m8.586458333333335 7.645833333333334 -6.645833333333334 0.9635416666666667 -0.11770833333333335 0.023958333333333335a1.0416666666666667 1.0416666666666667 0 0 0 -0.45833333333333337 1.7541666666666667l4.814583333333333 4.686458333333333 -1.1354166666666667 6.619791666666668 -0.013541666666666667 0.11458333333333334a1.0416666666666667 1.0416666666666667 0 0 0 1.5250000000000001 0.9833333333333334l5.9437500000000005 -3.125 5.930208333333334 3.125 0.10416666666666669 0.04791666666666667a1.0416666666666667 1.0416666666666667 0 0 0 1.4083333333333334 -1.1458333333333335l-1.1364583333333333 -6.619791666666668 4.816666666666666 -4.6875 0.08125 -0.08854166666666669a1.0416666666666667 1.0416666666666667 0 0 0 -0.659375 -1.6875000000000002l-6.645833333333334 -0.9645833333333335 -2.970833333333333 -6.020833333333334a1.0416666666666667 1.0416666666666667 0 0 0 -1.8687500000000001 0L8.586458333333335 7.645833333333334z" stroke-width="1"></path></svg>