<svg id="Trash--Streamline-Atlas.svg" xmlns="http://www.w3.org/2000/svg" viewBox="-0.5 -0.5 25 25" height="25" width="25"><desc>Trash Streamline Icon: https://streamlinehq.com</desc><defs></defs><path d="M16.88 22.5H7.12a1.9 1.9 0 0 1 -1.9 -1.8L4.36 5.32h15.28l-0.86 15.38a1.9 1.9 0 0 1 -1.9 1.8Z" fill="none" stroke="#000000" stroke-miterlimit="10" stroke-width="1"></path><path d="m2.45 5.32 19.1 0" fill="none" stroke="#000000" stroke-miterlimit="10" stroke-width="1"></path><path d="M10.09 1.5h3.82a1.91 1.91 0 0 1 1.91 1.91v1.91H8.18V3.41a1.91 1.91 0 0 1 1.91 -1.91Z" fill="none" stroke="#000000" stroke-miterlimit="10" stroke-width="1"></path><path d="m12 8.18 0 11.46" fill="none" stroke="#000000" stroke-miterlimit="10" stroke-width="1"></path><path d="m15.82 8.18 0 11.46" fill="none" stroke="#000000" stroke-miterlimit="10" stroke-width="1"></path><path d="m8.18 8.18 0 11.46" fill="none" stroke="#000000" stroke-miterlimit="10" stroke-width="1"></path></svg>