<svg xmlns="http://www.w3.org/2000/svg" fill="none" viewBox="0 0 25 25" id="Music-Player-Volume-High--Streamline-Nova.svg" height="25" width="25"><desc>Music Player Volume High Streamline Icon: https://streamlinehq.com</desc><path fill="#ffffff" fill-rule="evenodd" d="M16.666666666666668 21.817812500000002c4.6875 -0.5182291666666667 8.333333333333334 -4.4921875 8.333333333333334 -9.3178125 0 -4.825572916666667 -3.6458333333333335 -8.799604166666668 -8.333333333333334 -9.31778125v2.099958333333334c3.533645833333334 0.5054479166666667 6.25 3.5444166666666668 6.25 7.217822916666667 0 3.6734375000000004 -2.7163541666666666 6.712395833333334 -6.25 7.217812500000001v2.1ZM16.666666666666668 17.604166666666668c2.377291666666667 -0.48260416666666667 4.166666666666667 -2.584375 4.166666666666667 -5.104166666666667 0 -2.5197500000000006 -1.7893750000000002 -4.621572916666667 -4.166666666666667 -5.104145833333334v2.15696875c1.21375 0.4289895833333333 2.0833333333333335 1.5865520833333335 2.0833333333333335 2.9471770833333335 0 1.3606250000000002 -0.8695833333333334 2.518229166666667 -2.0833333333333335 2.9471875V17.604166666666668Z" clip-rule="evenodd" stroke-width="1"></path><path stroke="#ffffff" stroke-linejoin="round" stroke-width="1" d="M13.541666666666668 1.0416666666666667 5.5875 8.333333333333334H1.0416666666666667v8.333333333333334h4.545833333333333L13.541666666666668 23.958333333333336V1.0416666666666667Z"></path></svg>