<svg viewBox="-0.895 -0.895 25 25" fill="none" xmlns="http://www.w3.org/2000/svg" id="Credit-Cards--Streamline-Iconoir.svg" height="25" width="25"><desc>Credit Cards Streamline Icon: https://streamlinehq.com</desc><path d="M22.184408125 10.735978916666667v6.952168666666667c0 1.1686235 -0.9472581250000001 2.115881625 -2.115881625 2.115881625H6.315247583333334c-1.1685267916666666 0 -2.115881625 -0.9472581250000001 -2.115881625 -2.115881625v-1.5868870416666667m17.98504216666667 -5.365281625000001V9.224621083333334c0 -1.1686235 -0.9472581250000001 -2.115881625 -2.115881625 -2.115881625h-1.0578924583333336m3.1737740833333334 3.627239458333334h-3.1737740833333334" stroke="#000000" stroke-linecap="round" stroke-linejoin="round" stroke-width="1.79"></path><path d="M19.010634041666666 7.108739458333334v6.876639458333333c0 1.1686235 -0.9473548333333335 2.115881625 -2.115881625 2.115881625H3.1414735000000005c-1.1686235 0 -2.115881625 -0.9472581250000001 -2.115881625 -2.115881625V5.521852416666667c0 -1.1686235 0.9472581250000001 -2.115881625 2.115881625 -2.115881625h13.753278916666666c1.1685267916666666 0 2.115881625 0.9472581250000001 2.115881625 2.115881625v1.5868870416666667Zm0 0H4.728360541666667" stroke="#000000" stroke-linecap="round" stroke-linejoin="round" stroke-width="1.79"></path></svg>