<svg xmlns="http://www.w3.org/2000/svg" viewBox="0 0 25 25" id="Youtube-Line--Streamline-Mingcute.svg" height="25" width="25"><desc>Youtube Line Streamline Icon: https://streamlinehq.com</desc><g fill="none" fill-rule="nonzero"><path d="M25 0v25H0V0h25ZM13.117708333333335 24.227083333333333l-0.011458333333333334 0.0020833333333333337 -0.07395833333333333 0.03645833333333334 -0.020833333333333336 0.0041666666666666675 -0.014583333333333335 -0.0041666666666666675 -0.07395833333333333 -0.03645833333333334c-0.010416666666666668 -0.0041666666666666675 -0.01979166666666667 -0.0010416666666666669 -0.025 0.005208333333333334l-0.0041666666666666675 0.010416666666666668 -0.017708333333333336 0.44583333333333336 0.005208333333333334 0.020833333333333336 0.010416666666666668 0.013541666666666667 0.10833333333333334 0.07708333333333334 0.015625 0.0041666666666666675 0.0125 -0.0041666666666666675 0.10833333333333334 -0.07708333333333334 0.0125 -0.01666666666666667 0.0041666666666666675 -0.017708333333333336 -0.017708333333333336 -0.4447916666666667c-0.0020833333333333337 -0.010416666666666668 -0.009375 -0.017708333333333336 -0.017708333333333336 -0.01875Zm0.2760416666666667 -0.11770833333333335 -0.013541666666666667 0.0020833333333333337 -0.19270833333333334 0.096875 -0.010416666666666668 0.010416666666666668 -0.003125 0.011458333333333334 0.01875 0.4479166666666667 0.005208333333333334 0.0125 0.008333333333333335 0.007291666666666668 0.20937500000000003 0.096875c0.0125 0.0041666666666666675 0.023958333333333335 0 0.030208333333333337 -0.008333333333333335l0.0041666666666666675 -0.014583333333333335 -0.03541666666666667 -0.6395833333333334c-0.003125 -0.0125 -0.010416666666666668 -0.020833333333333336 -0.020833333333333336 -0.02291666666666667Zm-0.7447916666666667 0.0020833333333333337a0.023958333333333335 0.023958333333333335 0 0 0 -0.028125 0.00625l-0.00625 0.014583333333333335 -0.03541666666666667 0.6395833333333334c0 0.0125 0.007291666666666668 0.020833333333333336 0.017708333333333336 0.025l0.015625 -0.0020833333333333337 0.20937500000000003 -0.096875 0.010416666666666668 -0.008333333333333335 0.0041666666666666675 -0.011458333333333334 0.017708333333333336 -0.4479166666666667 -0.003125 -0.0125 -0.010416666666666668 -0.010416666666666668 -0.19166666666666668 -0.09583333333333334Z" stroke-width="1"></path><path fill="#3e3e41" d="M12.5 4.166666666666667c0.890625 0 1.8041666666666667 0.02291666666666667 2.689583333333333 0.060416666666666674l1.0458333333333334 0.05 1.0010416666666666 0.059375000000000004 0.9375000000000001 0.06354166666666666 0.8562500000000001 0.06666666666666668a3.960416666666667 3.960416666666667 0 0 1 3.639583333333334 3.5656250000000003l0.04166666666666667 0.44270833333333337 0.078125 0.9479166666666667c0.07291666666666669 0.9822916666666667 0.12708333333333333 2.053125 0.12708333333333333 3.077083333333334 0 1.0239583333333333 -0.05416666666666667 2.094791666666667 -0.12708333333333333 3.077083333333334l-0.078125 0.9479166666666667c-0.013541666666666667 0.15208333333333335 -0.027083333333333334 0.2989583333333333 -0.04166666666666667 0.44270833333333337a3.960416666666667 3.960416666666667 0 0 1 -3.6406250000000004 3.5656250000000003l-0.8541666666666666 0.065625 -0.9375000000000001 0.06458333333333334 -1.0020833333333334 0.059375000000000004 -1.0458333333333334 0.05c-0.8854166666666667 0.0375 -1.7989583333333337 0.060416666666666674 -2.689583333333333 0.060416666666666674 -0.890625 0 -1.8041666666666667 -0.02291666666666667 -2.689583333333333 -0.060416666666666674l-1.0458333333333334 -0.05 -1.0010416666666666 -0.059375000000000004 -0.9375000000000001 -0.06458333333333334 -0.8562500000000001 -0.065625a3.960416666666667 3.960416666666667 0 0 1 -3.639583333333334 -3.5656250000000003l-0.04166666666666667 -0.44270833333333337 -0.078125 -0.9479166666666667A42.35625 42.35625 0 0 1 2.0833333333333335 12.5c0 -1.0239583333333333 0.05416666666666667 -2.094791666666667 0.12708333333333333 -3.077083333333334l0.078125 -0.9479166666666667c0.013541666666666667 -0.15208333333333335 0.027083333333333334 -0.2989583333333333 0.04166666666666667 -0.44270833333333337A3.960416666666667 3.960416666666667 0 0 1 5.968750000000001 4.466666666666668l0.8552083333333333 -0.06666666666666668 0.9375000000000001 -0.06354166666666666 1.0020833333333334 -0.059375000000000004 1.0458333333333334 -0.05C10.695833333333335 4.189583333333334 11.609375 4.166666666666667 12.5 4.166666666666667Zm0 2.0833333333333335c-0.859375 0 -1.7437500000000001 0.02291666666666667 -2.604166666666667 0.05833333333333334l-1.01875 0.04895833333333334 -0.978125 0.05729166666666667 -0.9187500000000001 0.0625 -0.8416666666666668 0.065625a1.8770833333333334 1.8770833333333334 0 0 0 -1.7354166666666666 1.690625C4.281250000000001 9.492708333333333 4.166666666666667 11.060416666666669 4.166666666666667 12.5c0 1.4395833333333334 0.11458333333333334 3.0072916666666667 0.23645833333333335 4.2666666666666675 0.08854166666666669 0.9083333333333334 0.8093750000000001 1.6145833333333335 1.7354166666666666 1.690625l0.8416666666666668 0.06458333333333334 0.9187500000000001 0.0625 0.978125 0.05833333333333334 1.01875 0.04895833333333334c0.8604166666666667 0.03541666666666667 1.7447916666666667 0.05833333333333334 2.604166666666667 0.05833333333333334s1.7437500000000001 -0.02291666666666667 2.604166666666667 -0.05833333333333334l1.01875 -0.04895833333333334 0.978125 -0.05729166666666667 0.9187500000000001 -0.0625 0.8416666666666668 -0.065625a1.8770833333333334 1.8770833333333334 0 0 0 1.7354166666666666 -1.690625C20.718750000000004 15.507291666666669 20.833333333333336 13.939583333333333 20.833333333333336 12.5c0 -1.4395833333333334 -0.11458333333333334 -3.0072916666666667 -0.23645833333333335 -4.2666666666666675a1.8770833333333334 1.8770833333333334 0 0 0 -1.7354166666666666 -1.690625l-0.8416666666666668 -0.06458333333333334 -0.9187500000000001 -0.0625 -0.978125 -0.05833333333333334 -1.01875 -0.04895833333333334A63.221875000000004 63.221875000000004 0 0 0 12.5 6.25Zm-2.0833333333333335 3.723958333333334a0.625 0.625 0 0 1 0.853125 -0.5822916666666668l0.084375 0.04166666666666667 4.375000000000001 2.525a0.625 0.625 0 0 1 0.08854166666666669 1.0208333333333335l-0.08854166666666669 0.0625 -4.375000000000001 2.5260416666666665a0.625 0.625 0 0 1 -0.9312500000000001 -0.4479166666666667l-0.00625 -0.09375v-5.052083333333333Z" stroke-width="1"></path></g></svg>